<?xml version="1.0" encoding="UTF-8"?>
<svg id="Layer_1" data-name="Layer 1" xmlns="http://www.w3.org/2000/svg" viewBox="0 0 1080 1080">
  <defs>
    <style>
      .cls-1 {
        fill: #ff7f11;
      }
    </style>
  </defs>
  <path class="cls-1" d="M891.67,705.14l-108.75,41.04-97.15,38.41c-7.29,2.89-15.25-1.84-16.46-9.57-3.04-19.75-18.46-57.5-106.44-115.96-44.33-29.47-87.28-56.01-112.47-71.26-27.58,46.78-32.74,98.32-30.44,127.47.03.52.07.99.1,1.44,28.81,34.62,76.08,70.74,106.68,94.84,15.92,12.53-.87,32.41-23.86,35.27l-60.3,17.07c-9.68,3.6-20.67,1.14-27.78-6.39-40.17-42.63-68.11-97.97-85.74-162.02-45.66-165.98-17.23-351.46-4.48-414.99,2.31-11.49,12.74-24.27,24.25-26.19,4.23-.72,70.54-18.7,70.54-18.7,27.49-5.13,29.63,48.28,23.16,64.57-20.5,51.68-56.73,157.22-58.7,264.82,9.23-15.24,19.83-31.49,31.84-48.4,68.15-95.98,225.78-274.62,237.57-270.69,0,0,75.81,30.74,76.33,30.8,4.95.7,6.71,7.34,2.31,10.27-79.6,53.13-170.95,167.79-237.66,245.5,26.27,16.05,66.11,40.84,107.13,68.1,70.36,46.73,120.07,76.73,152.97,97.61,20.64-38.75,39.3-86.49,51.68-135.36,31.57,60.27,66.51,113.79,85.67,142.3Z"/>
  <path class="cls-1" d="M812.32,382.26c15.28,50.25,9.91,116.4-6.34,180.58-38.63-73.69-72.24-157.46-65.78-217.74,1.23-11.52,4.39-41.1,15.21-46.42,18.12-8.94,47.7,53.33,56.9,83.58Z"/>
</svg>